<svg xmlns="http://www.w3.org/2000/svg" xmlns:xlink="http://www.w3.org/1999/xlink" version="1.1" id="Layer_1" x="0px" y="0px" viewBox="0 0 512 96" style="enable-background:new 0 0 512 96;" xml:space="preserve">
<style type="text/css">
    .st0{fill:#00B67A;}
    .st2{fill:#FFFFFF;}
</style>
<g id="Trustpilot_ratings_5star-RGB">
    <g>
        <rect id="Rectangle-path" class="st0" width="96" height="96"/>
        <rect x="104" class="st0" width="96" height="96"/>
        <rect x="208" class="st0" width="96" height="96"/>
        <rect x="312" class="st0" width="96" height="96"/>
        <rect x="416" class="st0" width="96" height="96"/>
        <path id="Shape" class="st2" d="M48,64.7L62.6,61l6.1,18.8L48,64.7z M81.6,40.4H55.9L48,16.2l-7.9,24.2H14.4l20.8,15l-7.9,24.2    l20.8-15l12.8-9.2L81.6,40.4L81.6,40.4L81.6,40.4L81.6,40.4z"/>
        <path class="st2" d="M152,64.7l14.6-3.7l6.1,18.8L152,64.7z M185.6,40.4h-25.7L152,16.2l-7.9,24.2h-25.7l20.8,15l-7.9,24.2    l20.8-15l12.8-9.2L185.6,40.4L185.6,40.4L185.6,40.4L185.6,40.4z"/>
        <path class="st2" d="M256,64.7l14.6-3.7l6.1,18.8L256,64.7z M289.6,40.4h-25.7L256,16.2l-7.9,24.2h-25.7l20.8,15l-7.9,24.2    l20.8-15l12.8-9.2L289.6,40.4L289.6,40.4L289.6,40.4L289.6,40.4z"/>
        <path class="st2" d="M360,64.7l14.6-3.7l6.1,18.8L360,64.7z M393.6,40.4h-25.7L360,16.2l-7.9,24.2h-25.7l20.8,15l-7.9,24.2    l20.8-15l12.8-9.2L393.6,40.4L393.6,40.4L393.6,40.4L393.6,40.4z"/>
        <path class="st2" d="M464,64.7l14.6-3.7l6.1,18.8L464,64.7z M497.6,40.4h-25.7L464,16.2l-7.9,24.2h-25.7l20.8,15l-7.9,24.2    l20.8-15l12.8-9.2L497.6,40.4L497.6,40.4L497.6,40.4L497.6,40.4z"/>
    </g>
</g>
</svg>
